HIERARCHY
ROOT root
{
	OFFSET 0.000000 0.000000 0.000000
	CHANNELS 6 Xposition Yposition Zposition Zrotation Yrotation Xrotation
	JOINT lhip
	{
		OFFSET 0.058581 -0.082280 -0.017664
		CHANNELS 3 Zrotation Yrotation Xrotation
		JOINT lknee
		{
			OFFSET 0.043451 -0.386469 0.008037
			CHANNELS 3 Zrotation Yrotation Xrotation
			JOINT lankle
			{
				OFFSET -0.014790 -0.426874 -0.037428
				CHANNELS 3 Zrotation Yrotation Xrotation
				JOINT ltoe
				{
					OFFSET 0.041054 -0.060286 0.122042
					CHANNELS 3 Zrotation Yrotation Xrotation
					End Site
					{
						OFFSET 0.000000 0.000000 0.000000
					}
				}
			}
		}
	}
	JOINT rhip
	{
		OFFSET -0.060310 -0.090513 -0.013543
		CHANNELS 3 Zrotation Yrotation Xrotation
		JOINT rknee
		{
			OFFSET -0.043257 -0.383688 -0.004843
			CHANNELS 3 Zrotation Yrotation Xrotation
			JOINT rankle
			{
				OFFSET 0.019056 -0.420046 -0.034562
				CHANNELS 3 Zrotation Yrotation Xrotation
				JOINT rtoe
				{
					OFFSET -0.034840 -0.062106 0.130323
					CHANNELS 3 Zrotation Yrotation Xrotation
					End Site
					{
						OFFSET 0.000000 0.000000 0.000000
					}
				}
			}
		}
	}
	JOINT lowerback
	{
		OFFSET 0.004439 0.124404 -0.038385
		CHANNELS 3 Zrotation Yrotation Xrotation
		JOINT upperback
		{
			OFFSET 0.004488 0.137956 0.026820
			CHANNELS 3 Zrotation Yrotation Xrotation
			JOINT chest
			{
				OFFSET -0.002265 0.056032 0.002855
				CHANNELS 3 Zrotation Yrotation Xrotation
				JOINT lowerneck
				{
					OFFSET -0.013390 0.211636 -0.033468
					CHANNELS 3 Zrotation Yrotation Xrotation
					JOINT upperneck
					{
						OFFSET 0.010113 0.088937 0.050410
						CHANNELS 3 Zrotation Yrotation Xrotation
						End Site
						{
							OFFSET 0.000000 0.000000 0.000000
						}
					}
				}
				JOINT lclavicle
				{
					OFFSET 0.071702 0.114000 -0.018898
					CHANNELS 3 Zrotation Yrotation Xrotation
					JOINT lshoulder
					{
						OFFSET 0.122921 0.045205 -0.019046
						CHANNELS 3 Zrotation Yrotation Xrotation
						JOINT lelbow
						{
							OFFSET 0.255332 -0.015649 -0.022946
							CHANNELS 3 Zrotation Yrotation Xrotation
							JOINT lwrist
							{
								OFFSET 0.265709 0.012698 -0.007375
								CHANNELS 3 Zrotation Yrotation Xrotation
								End Site
								{
									OFFSET 0.000000 0.000000 0.000000
								}
							}
						}
					}
				}
				JOINT rclavicle
				{
					OFFSET -0.082954 0.112472 -0.023707
					CHANNELS 3 Zrotation Yrotation Xrotation
					JOINT rshoulder
					{
						OFFSET -0.113228 0.046853 -0.008472
						CHANNELS 3 Zrotation Yrotation Xrotation
						JOINT relbow
						{
							OFFSET -0.260127 -0.014369 -0.031269
							CHANNELS 3 Zrotation Yrotation Xrotation
							JOINT rwrist
							{
								OFFSET -0.269108 0.006794 -0.006027
								CHANNELS 3 Zrotation Yrotation Xrotation
								End Site
								{
									OFFSET 0.000000 0.000000 0.000000
								}
							}
						}
					}
				}
			}
		}
	}
}
MOTION
Frames: 17
Frame Time: 0.033333
0.158511 2.376654 0.977327 -52.480109 -1.258576 93.838371 8.801274 -0.870259 -24.527763 -6.701949 -7.643421 16.847795 3.506527 7.677896 -12.662859 0.000000 -0.000000 0.000000 -9.533008 -10.177904 -8.803299 5.883248 -11.480173 27.739574 8.407333 -11.332402 -15.615131 0.000000 -0.000000 0.000000 -0.461587 0.653990 16.935710 -0.310977 -2.758781 -8.341916 -0.205446 -1.491455 2.421786 -2.229555 11.330273 1.203607 -2.308798 7.183387 9.473058 -23.960336 4.474891 -0.276690 -51.732373 -7.613630 5.050949 9.694006 -25.864179 2.609965 5.344829 -4.081590 -5.997168 22.660723 -3.816319 2.426784 52.012890 0.253756 12.518339 -6.802943 25.719035 2.158425 -0.357040 2.737822 -2.465802 
0.162997 2.377799 0.978093 -46.585721 -1.767885 94.018488 7.444736 0.293132 -26.631353 -5.892100 -1.476669 15.110731 3.718005 9.507062 -11.444537 0.000000 -0.000000 0.000000 -9.538869 -10.861309 -7.311994 5.667543 -13.138069 26.206284 7.922959 -12.551410 -15.568063 0.000000 -0.000000 0.000000 -0.104836 1.110066 17.191561 -0.281927 -2.961966 -8.462622 -0.342859 -1.443886 2.628003 -2.298011 9.631034 0.922366 -1.758653 5.859885 8.753824 -24.217681 4.105359 0.022782 -51.178966 -7.526924 4.734623 9.251112 -25.676427 2.691495 3.132027 -3.274808 -6.192850 22.622370 -3.555811 2.418262 51.689579 0.120775 12.282556 -6.648744 25.208828 1.599660 0.273441 2.637026 -2.398326 
0.165936 2.377894 0.977852 -41.835214 -1.701834 94.301416 7.042108 1.591291 -27.642694 -5.109711 3.854267 13.804667 3.570558 10.911280 -11.651915 0.000000 -0.000000 0.000000 -8.583277 -11.228262 -6.070870 4.985717 -14.872780 24.475997 7.452070 -14.219374 -16.157837 0.000000 -0.000000 0.000000 0.212225 1.635615 17.257006 -0.321939 -2.663454 -8.776205 -0.141240 -1.222541 2.794619 -2.290404 8.140498 0.521117 -1.500118 4.751434 8.283664 -24.415847 4.149483 0.233833 -50.635944 -7.370945 4.019795 9.202996 -25.605669 2.082737 2.656652 -3.576358 -5.997043 22.428461 -3.139482 2.359319 51.274458 0.068533 12.463989 -6.452555 24.715237 2.018752 0.116532 2.579545 -1.621564 
0.168363 2.374631 0.977141 -38.087388 -2.017826 94.212899 6.330910 3.343231 -28.104172 -4.416704 10.975515 13.781818 3.599539 13.273793 -11.185290 0.000000 -0.000000 0.000000 -8.350177 -11.605196 -3.971686 4.512379 -16.644734 21.852336 7.125722 -15.446486 -16.436910 0.000000 -0.000000 0.000000 -0.080164 2.344890 17.519077 -0.539225 -2.451658 -8.711637 0.045167 -0.795126 2.656200 -2.046185 6.567739 -0.058911 -1.004308 3.793278 7.615353 -24.502753 4.788807 0.035242 -50.003914 -6.853782 3.018260 9.192364 -25.920143 1.639756 2.837256 -3.503985 -5.208483 22.417092 -2.649953 2.210157 50.770895 0.412116 12.687508 -6.482953 24.259038 2.316658 -0.400059 2.669018 -0.307894 
0.172956 2.369878 0.975329 -34.444212 -1.903466 94.432672 5.906493 4.932659 -29.676722 -3.161019 16.041763 16.319001 4.330904 15.372181 -11.215364 0.000000 -0.000000 0.000000 -7.725364 -12.266761 -2.109772 4.170235 -18.515419 18.923749 6.712472 -16.546645 -16.467157 0.000000 -0.000000 0.000000 0.297926 2.857472 17.908214 -0.881638 -2.438765 -9.139031 0.158364 -0.571205 2.481622 -2.522760 5.328251 -0.304378 -0.523756 3.625815 6.628790 -24.182236 5.008346 0.259574 -50.206207 -6.364330 2.146415 10.090865 -25.062479 0.799972 4.068737 -3.388226 -5.176676 21.795986 -1.986800 2.347251 50.619123 1.298602 12.509085 -6.548172 24.041013 2.509233 -1.531270 2.709866 0.281826 
0.177157 2.362606 0.973430 -31.661288 -1.865162 94.591692 6.413006 4.732236 -30.453577 -2.267701 18.645790 19.690611 5.140215 17.028813 -11.475959 0.000000 -0.000000 0.000000 -7.595886 -12.807262 -0.235530 4.358558 -19.754019 16.233824 6.363999 -17.577758 -16.052086 0.000000 -0.000000 0.000000 0.219087 3.528468 17.951059 -1.176740 -2.396766 -9.363826 0.220174 -0.302349 2.528281 -2.537108 4.559677 -0.992166 -0.135648 3.337774 5.950331 -24.138282 5.182020 0.502024 -50.098729 -5.787851 1.302526 10.756043 -23.686702 -0.221845 3.230003 -2.865094 -6.155361 21.711946 -1.175795 2.325675 50.198783 2.341127 12.291056 -6.970632 24.083182 2.077584 -1.771874 2.697100 0.153478 
0.182220 2.352937 0.971002 -29.395431 -1.596958 94.886616 7.436683 3.824114 -31.134680 -1.553547 20.307902 23.601915 6.104313 17.782195 -12.490617 0.000000 -0.000000 0.000000 -7.460908 -13.173491 1.128912 4.420974 -20.676547 14.437400 6.036608 -18.405217 -15.507070 0.000000 -0.000000 0.000000 0.288916 4.152090 17.557274 -1.310839 -2.258939 -9.144889 0.366666 -0.079939 1.766892 -2.355527 2.698509 0.437175 -1.015400 3.149739 4.915033 -24.070490 5.191448 1.583712 -50.454507 -4.915299 0.559410 11.986430 -22.465126 -1.081743 2.148811 -2.517642 -7.612498 20.847995 -0.564152 3.092909 50.544336 3.822039 11.588091 -7.655668 24.452356 1.506819 -1.918012 2.372852 -0.806471 
0.187570 2.340282 0.969237 -27.746978 -1.187150 95.221408 7.569729 3.782498 -30.854696 -1.470494 19.213346 25.612053 6.182040 17.454778 -13.500365 0.000000 -0.000000 0.000000 -7.428186 -13.992812 1.933335 3.930715 -20.954139 13.955470 6.151281 -18.680207 -14.762556 0.000000 -0.000000 0.000000 0.326448 4.759281 16.994646 -1.483050 -1.951778 -9.095284 0.420188 0.103168 1.700826 -1.890734 2.234035 -0.150455 -0.744035 2.790788 4.260829 -24.232592 5.350039 1.589383 -50.612201 -3.785526 0.347490 12.512496 -20.474569 -1.522269 2.418269 -1.798210 -7.829171 21.150116 -0.018527 2.830966 49.825187 4.945677 11.079955 -8.103890 25.273487 0.593236 -2.387723 2.299847 -1.278412 
0.193917 2.323998 0.967081 -26.346507 -0.805270 95.412218 6.648965 4.083339 -29.250438 -2.171012 17.813266 24.215980 5.875379 16.920287 -15.336652 0.000000 -0.000000 0.000000 -7.637823 -14.099477 2.599113 3.225249 -21.233827 14.233697 6.830722 -19.193412 -14.289384 0.000000 -0.000000 0.000000 0.326934 5.091049 16.384059 -1.635574 -1.389233 -9.008601 0.500489 0.345796 1.685744 -1.249894 1.843386 -0.718159 -0.540320 2.404922 3.545362 -24.299587 5.732903 1.413749 -50.780403 -2.826487 0.095524 12.232158 -18.555417 -1.256055 2.211795 -1.498515 -7.591484 21.250859 0.143394 2.266929 49.448188 5.665929 10.801297 -8.763584 26.881086 -0.633562 -2.932155 2.332061 -1.766947 
0.201710 2.304615 0.964992 -24.805662 -0.722749 95.489743 4.976203 4.764973 -28.071095 -3.339357 15.898858 22.702627 7.301828 15.896720 -16.703635 0.000000 -0.000000 0.000000 -8.101014 -13.548333 2.810233 1.885232 -21.118308 15.775449 7.070572 -20.205242 -13.492583 0.000000 -0.000000 0.000000 0.052639 5.074671 15.714514 -1.576696 -0.971626 -8.877453 0.510824 0.637363 1.631714 -0.545989 1.295962 -0.976685 -0.284984 2.327879 2.710645 -24.402997 6.059580 1.564923 -50.966668 -2.035134 -0.000166 11.709528 -16.950337 -0.396916 1.576151 -1.201110 -7.315548 21.365375 0.285524 1.909400 49.279398 6.422158 10.579407 -9.593919 28.458259 -2.438555 -2.806392 2.578109 -2.634493 
0.210067 2.282628 0.963568 -23.244334 -0.870029 95.320264 3.843230 4.394942 -27.115872 -3.637121 15.403883 23.266272 7.096225 16.210214 -18.341296 0.000000 -0.000000 0.000000 -9.257821 -12.740196 2.258263 0.159688 -20.913729 19.933215 6.867850 -21.462705 -11.798425 0.000000 -0.000000 0.000000 -0.493836 5.161737 14.679953 -1.413286 -0.622670 -8.069484 0.595422 0.686196 1.552516 0.086887 1.178537 -0.707743 -0.119138 2.568285 1.590541 -24.409553 6.156834 1.955859 -51.220554 -1.342575 0.184958 11.163085 -15.938998 1.147840 0.404272 -0.768226 -6.745646 21.406836 0.235416 1.635812 49.404148 7.145089 10.557900 -10.393381 30.219192 -4.446053 -2.581891 2.806210 -3.975238 
0.218800 2.259070 0.963640 -21.190003 -1.301105 95.134181 2.526799 3.097161 -24.752431 -4.916409 15.043559 21.428645 7.614704 16.251502 -19.697334 0.000000 -0.000000 0.000000 -10.500341 -11.265630 0.334175 -2.119484 -20.164805 26.831147 6.145705 -23.339619 -9.081253 0.000000 -0.000000 0.000000 -1.231793 4.784701 13.394437 -1.014345 -0.432270 -7.341039 0.607710 0.518641 1.742205 0.851346 0.945319 -1.045808 -0.281704 2.761511 1.157046 -24.456073 6.160213 2.354478 -51.412928 -1.216394 0.455010 10.732414 -14.834187 2.070496 -0.779381 -0.462338 -6.705706 21.510449 0.250794 1.529044 49.739965 7.827908 11.172511 -11.186545 31.508460 -6.115894 -2.067373 2.787059 -5.051962 
0.228230 2.236008 0.965788 -18.201869 -1.716192 94.712779 0.615579 2.467603 -21.640167 -6.130291 12.989141 18.451273 8.065590 16.445977 -20.297308 0.000000 -0.000000 0.000000 -11.710707 -10.050154 -2.735954 -4.271450 -18.769330 36.257033 4.482694 -24.727431 -5.534888 0.000000 -0.000000 0.000000 -1.703192 3.685124 12.957527 -0.563270 -0.465149 -7.224231 0.547735 0.108283 1.808174 1.606368 0.703092 -1.221008 -0.492238 2.763902 0.997907 -24.249592 5.940091 2.647901 -51.717230 -1.267859 0.965136 10.290378 -14.245348 3.113815 -1.833048 -0.234100 -6.848451 21.661807 0.275539 1.264596 50.199137 8.273445 11.937244 -11.602395 32.143190 -6.884264 -1.422247 2.963769 -5.394456 
0.236417 2.213334 0.968634 -15.154386 -1.851221 93.867853 -1.227227 3.240050 -17.882818 -6.952196 9.594612 15.450819 8.455474 16.592474 -20.801060 0.000000 -0.000000 0.000000 -12.308418 -8.626748 -5.689381 -5.064509 -16.971777 45.165878 3.823427 -24.808644 -4.147328 0.000000 -0.000000 0.000000 -2.009917 2.346361 12.927944 -0.093177 -0.443464 -6.858751 0.572091 -0.222715 1.625781 2.238693 0.554150 -0.851156 -0.606339 2.531301 0.580533 -24.019378 5.264955 2.689169 -51.596541 -1.598290 1.222466 9.821379 -14.066773 3.536500 -2.528050 0.099247 -6.971986 21.767211 0.448382 0.922854 50.736396 8.189786 12.510019 -11.477461 32.605315 -6.619170 -0.549196 2.669622 -4.927728 
0.243465 2.190928 0.972328 -12.104420 -1.485399 92.542779 -2.528593 4.412271 -13.413033 -6.968527 5.432892 12.386856 7.524845 16.661410 -21.166450 0.000000 -0.000000 0.000000 -11.656246 -7.381168 -7.809540 -2.955956 -15.138017 50.537895 4.094247 -19.633537 -6.366543 0.000000 -0.000000 0.000000 -1.667761 1.115203 13.901645 0.255989 -0.419797 -6.767434 0.640879 -0.582886 1.771638 2.844271 1.130694 -2.388180 -1.326401 1.445095 0.782994 -24.552316 4.112396 1.429438 -50.625641 -1.829441 1.945666 9.499495 -14.514619 2.552678 -2.151057 -0.293696 -5.350911 22.226668 0.559874 -0.088973 50.803297 7.531003 12.824555 -10.767257 33.197590 -5.769194 0.257181 3.334846 -4.347051 
0.249412 2.170040 0.975623 -8.840303 -1.032410 91.885223 -3.322052 4.558289 -10.089972 -6.587782 2.119480 9.904424 6.877393 16.531792 -21.071334 0.000000 -0.000000 0.000000 -10.457235 -6.831607 -11.541026 -2.137872 -15.493202 55.043229 3.332576 -19.591575 -8.068136 0.000000 -0.000000 0.000000 -1.538324 -0.148188 14.251579 0.642458 -0.270557 -6.744932 0.806080 -1.042141 2.155857 3.460620 1.314871 -3.848076 -1.619137 0.576395 1.159184 -24.774624 2.878760 0.747334 -49.808083 -2.987761 2.650219 9.284662 -16.077401 2.102432 -1.427920 -0.729740 -4.089795 22.648580 0.827212 -0.650352 51.036180 6.830282 13.201711 -10.580899 32.899894 -5.326234 0.877653 3.391919 -3.591506 
0.253774 2.150284 0.979383 -5.747046 -0.529800 91.564284 -3.557496 4.556573 -7.299594 -6.217616 -0.420727 7.839521 6.162146 16.108022 -21.111897 0.000000 -0.000000 0.000000 -8.865010 -6.343341 -16.273224 -1.748491 -16.635282 57.658279 3.911583 -18.766183 -11.831830 0.000000 -0.000000 0.000000 -1.473343 -1.324539 14.717219 0.909603 -0.185270 -6.902533 0.962940 -1.396040 2.117136 3.998759 1.789308 -4.416592 -1.266935 -0.513321 1.296490 -24.312114 1.783783 0.347350 -49.609088 -4.380527 3.251625 9.447609 -18.538205 1.755593 -0.456279 -1.039260 -2.740975 22.735426 1.120908 -0.578861 51.664934 6.069839 13.115075 -10.262431 32.279594 -4.298376 1.303455 3.514214 -2.682000 
